<svg width="21" height="15" viewBox="0 0 21 15" fill="none" xmlns="http://www.w3.org/2000/svg">
<path d="M2.33333 0C1.04635 0 0 1.12109 0 2.5V12.5C0 13.8789 1.04635 15 2.33333 15H18.6667C19.9536 15 21 13.8789 21 12.5V2.5C21 1.12109 19.9536 0 18.6667 0H2.33333ZM4.66667 12.5H2.33333V10C3.62031 10 4.66667 11.1211 4.66667 12.5ZM2.33333 5V2.5H4.66667C4.66667 3.87891 3.62031 5 2.33333 5ZM16.3333 12.5C16.3333 11.1211 17.3797 10 18.6667 10V12.5H16.3333ZM18.6667 5C17.3797 5 16.3333 3.87891 16.3333 2.5H18.6667V5ZM10.5 3.75C11.4283 3.75 12.3185 4.14509 12.9749 4.84835C13.6313 5.55161 14 6.50544 14 7.5C14 8.49456 13.6313 9.44839 12.9749 10.1517C12.3185 10.8549 11.4283 11.25 10.5 11.25C9.57174 11.25 8.6815 10.8549 8.02513 10.1517C7.36875 9.44839 7 8.49456 7 7.5C7 6.50544 7.36875 5.55161 8.02513 4.84835C8.6815 4.14509 9.57174 3.75 10.5 3.75Z" fill="#707070"/>
</svg>
