<svg width="20" height="16" viewBox="0 0 20 16" fill="none" xmlns="http://www.w3.org/2000/svg">
<path d="M2.5 0.125C1.12109 0.125 0 1.13398 0 2.375V13.625C0 14.866 1.12109 15.875 2.5 15.875H17.5C18.8789 15.875 20 14.866 20 13.625V5.75C20 4.50898 18.8789 3.5 17.5 3.5H3.125C2.78125 3.5 2.5 3.24688 2.5 2.9375C2.5 2.62812 2.78125 2.375 3.125 2.375H17.5C18.1914 2.375 18.75 1.87227 18.75 1.25C18.75 0.627734 18.1914 0.125 17.5 0.125H2.5ZM16.25 8.5625C16.5815 8.5625 16.8995 8.68103 17.1339 8.892C17.3683 9.10298 17.5 9.38913 17.5 9.6875C17.5 9.98587 17.3683 10.272 17.1339 10.483C16.8995 10.694 16.5815 10.8125 16.25 10.8125C15.9185 10.8125 15.6005 10.694 15.3661 10.483C15.1317 10.272 15 9.98587 15 9.6875C15 9.38913 15.1317 9.10298 15.3661 8.892C15.6005 8.68103 15.9185 8.5625 16.25 8.5625Z" fill="#707070"/>
</svg>
