<svg width="21" height="18" viewBox="0 0 21 18" fill="none" xmlns="http://www.w3.org/2000/svg">
<path d="M3.15 4.5C3.15 3.30653 3.5925 2.16193 4.38015 1.31802C5.1678 0.474106 6.23609 0 7.35 0C8.46391 0 9.5322 0.474106 10.3198 1.31802C11.1075 2.16193 11.55 3.30653 11.55 4.5C11.55 5.69347 11.1075 6.83807 10.3198 7.68198C9.5322 8.52589 8.46391 9 7.35 9C6.23609 9 5.1678 8.52589 4.38015 7.68198C3.5925 6.83807 3.15 5.69347 3.15 4.5ZM0 16.9559C0 13.493 2.61844 10.6875 5.85047 10.6875H8.84953C12.0816 10.6875 14.7 13.493 14.7 16.9559C14.7 17.5324 14.2636 18 13.7255 18H0.974531C0.436406 18 0 17.5324 0 16.9559ZM19.9927 18H15.4711C15.6483 17.6695 15.7533 17.2863 15.7533 16.875V16.5938C15.7533 14.4598 14.8641 12.5438 13.463 11.257C13.5417 11.2535 13.6172 11.25 13.6959 11.25H15.7106C18.6309 11.25 21 13.7883 21 16.9207C21 17.5184 20.5472 18 19.9927 18ZM14.175 9C13.1578 9 12.2391 8.55703 11.573 7.84336C12.2194 6.9082 12.6 5.75156 12.6 4.5C12.6 3.55781 12.3834 2.66836 11.9995 1.88789C12.6098 1.40977 13.3612 1.125 14.175 1.125C16.2061 1.125 17.85 2.88633 17.85 5.0625C17.85 7.23867 16.2061 9 14.175 9Z" fill="#707070"/>
</svg>
