<svg width="20" height="18" viewBox="0 0 20 18" fill="none" xmlns="http://www.w3.org/2000/svg">
<path d="M6.78571 0.84375C6.78571 0.376172 6.30804 0 5.71429 0C5.12054 0 4.64286 0.376172 4.64286 0.84375V2.25H2.85714C1.28125 2.25 0 3.25898 0 4.5V5.0625V6.75V15.75C0 16.991 1.28125 18 2.85714 18H17.1429C18.7188 18 20 16.991 20 15.75V6.75V5.0625V4.5C20 3.25898 18.7188 2.25 17.1429 2.25H15.3571V0.84375C15.3571 0.376172 14.8795 0 14.2857 0C13.692 0 13.2143 0.376172 13.2143 0.84375V2.25H6.78571V0.84375ZM2.14286 6.75H5.71429V8.71875H2.14286V6.75ZM2.14286 10.4062H5.71429V12.6562H2.14286V10.4062ZM7.85714 10.4062H12.1429V12.6562H7.85714V10.4062ZM14.2857 10.4062H17.8571V12.6562H14.2857V10.4062ZM17.8571 8.71875H14.2857V6.75H17.8571V8.71875ZM17.8571 14.3438V15.75C17.8571 16.0594 17.5357 16.3125 17.1429 16.3125H14.2857V14.3438H17.8571ZM12.1429 14.3438V16.3125H7.85714V14.3438H12.1429ZM5.71429 14.3438V16.3125H2.85714C2.46429 16.3125 2.14286 16.0594 2.14286 15.75V14.3438H5.71429ZM12.1429 8.71875H7.85714V6.75H12.1429V8.71875Z" fill="#707070"/>
</svg>
